<?xml version="1.0" encoding="UTF-8"?>
<svg id="Layer_2" data-name="Layer 2" xmlns="http://www.w3.org/2000/svg" viewBox="0 0 126 126">
  <defs>
    <style>
      .cls-1 {
        fill: #000000;
      }
    </style>
  </defs>
  <g id="Layer_1-2" data-name="Layer 1">
    <g>
      <path class="cls-1" d="M62.06,70.38l-11.29,11.3c-.83.82-1.96,1.33-3.22,1.33-2.51,0-4.55-2.04-4.55-4.56,0-1.25.51-2.39,1.33-3.21l11.3-11.3c.42,3.36,3.08,6.02,6.43,6.44ZM50.76,44.32l11.29,11.3c-3.35.43-6.01,3.08-6.43,6.44l-11.3-11.3c-.82-.82-1.33-1.96-1.33-3.21,0-2.52,2.04-4.56,4.55-4.56,1.26,0,2.39.51,3.22,1.33ZM70.38,63.94l11.29,11.3c.82.82,1.34,1.96,1.34,3.21,0,2.52-2.04,4.56-4.55,4.56-1.26,0-2.4-.51-3.22-1.33l-11.29-11.3c3.36-.43,6.02-3.08,6.44-6.44ZM63.94,55.62l11.29-11.3c.82-.82,1.97-1.33,3.22-1.33,2.52,0,4.55,2.04,4.55,4.56,0,1.25-.51,2.39-1.34,3.21l-11.29,11.3c-.42-3.36-3.08-6.02-6.44-6.44Z"/>
      <path class="cls-1" d="M67.4,63c0,5.87-8.8,5.87-8.8,0s8.8-5.87,8.8,0Z"/>
    </g>
  </g>
</svg>
