<svg xmlns="http://www.w3.org/2000/svg" viewBox="93.50 188.30 429.19 130.39" width="429.19" height="130.39"><svg x="100" y="200" width="420" height="120.0" viewBox="0 0 322 92" overflow="visible"><g stroke="#EFF3F4" stroke-width="13.5" fill="none" stroke-linecap="round" stroke-linejoin="round"><path d="M14 30 L14 72"/><path d="M14 40 A14 10 0 0 1 42 40"/><path d="M42 40 L42 72"/><path d="M42 40 A14 10 0 0 1 70 40"/><path d="M70 40 L70 72"/><circle cx="111" cy="51" r="21"/><path d="M132 30 L132 72"/><circle cx="235" cy="51" r="21"/><path d="M256 30 L256 72"/><path d="M279 30 L279 72"/><path d="M279 39 A18 13 0 0 1 305 30"/></g><g stroke="#2E94A6" stroke-width="13.5" fill="none" stroke-linecap="round" stroke-linejoin="round"><circle cx="173" cy="51" r="21"/><path d="M194 10 L194 72"/></g></svg></svg>