<?xml version="1.0" encoding="UTF-8"?>
<svg id="Layer_2" data-name="Layer 2" xmlns="http://www.w3.org/2000/svg" viewBox="0 0 341.28 65.62">
  <defs>
    <style>
      .cls-1 {
        fill: #0a2540;
      }

      .cls-2 {
        fill: #c25b3f;
      }
    </style>
  </defs>
  <g id="Layer_1-2" data-name="Layer 1">
    <g>
      <path class="cls-1" d="M27.39,23.17l14.77-14.77c1.08-1.08,2.57-1.75,4.21-1.75,3.29,0,5.96,2.67,5.96,5.95,0,1.64-.67,3.14-1.75,4.21l-14.77,14.77c-.55-4.39-4.03-7.87-8.41-8.41ZM10.16,8.4l14.77,14.77c-4.39.55-7.86,4.03-8.41,8.41L1.75,16.81c-1.08-1.07-1.75-2.56-1.75-4.21,0-3.29,2.67-5.95,5.95-5.95,1.64,0,3.14.67,4.21,1.75ZM35.8,34.04l14.77,14.77c1.08,1.07,1.75,2.57,1.75,4.21,0,3.28-2.66,5.96-5.96,5.96-1.64,0-3.13-.67-4.21-1.75l-14.77-14.77c4.39-.55,7.87-4.03,8.41-8.41ZM24.93,42.46l-14.75,14.76h-.02c-1.07,1.09-2.56,1.76-4.21,1.76-3.29,0-5.95-2.67-5.95-5.96,0-1.64.67-3.13,1.75-4.21l14.77-14.77c.55,4.39,4.03,7.87,8.41,8.41Z"/>
      <path class="cls-2" d="M31.91,32.81c0,3.18-2.57,5.75-5.75,5.75s-5.75-2.57-5.75-5.75,2.57-5.75,5.75-5.75,5.75,2.57,5.75,5.75Z"/>
      <path class="cls-1" d="M126.55,65.62c-4.52,0-8.6-.78-12.23-2.34-3.63-1.56-6.62-3.79-8.97-6.7-2.35-2.9-3.88-6.35-4.57-10.34l9.54-1.45c.96,3.85,2.97,6.85,6.04,8.99,3.06,2.15,6.63,3.22,10.72,3.22,2.54,0,4.87-.4,7-1.21,2.13-.8,3.84-1.95,5.14-3.45,1.29-1.5,1.94-3.31,1.94-5.41,0-1.14-.2-2.14-.59-3.02-.39-.88-.93-1.64-1.62-2.3-.68-.66-1.52-1.22-2.5-1.7-.98-.48-2.05-.89-3.22-1.25l-16.14-4.77c-1.58-.47-3.18-1.08-4.82-1.82-1.63-.74-3.12-1.72-4.48-2.93-1.36-1.21-2.46-2.72-3.3-4.51-.84-1.8-1.27-3.98-1.27-6.54,0-3.88,1-7.16,3-9.86,2-2.7,4.7-4.74,8.11-6.13C117.76.73,121.58.04,125.81.04c4.25.06,8.07.82,11.44,2.27,3.37,1.46,6.17,3.55,8.4,6.28,2.23,2.73,3.77,6.04,4.62,9.91l-9.8,1.66c-.44-2.36-1.37-4.4-2.8-6.1-1.43-1.71-3.18-3.02-5.25-3.94-2.07-.92-4.32-1.39-6.74-1.42-2.33-.06-4.46.29-6.41,1.05-1.94.76-3.48,1.82-4.64,3.19-1.15,1.37-1.73,2.94-1.73,4.73s.51,3.16,1.53,4.25c1.02,1.07,2.28,1.93,3.79,2.56,1.5.62,2.99,1.14,4.48,1.55l11.63,3.28c1.46.41,3.11.96,4.96,1.64,1.86.69,3.65,1.64,5.38,2.87,1.73,1.23,3.17,2.85,4.3,4.88,1.14,2.02,1.71,4.57,1.71,7.62s-.64,5.98-1.93,8.39c-1.28,2.41-3.04,4.42-5.27,6.04-2.23,1.61-4.8,2.83-7.72,3.65-2.92.81-6,1.22-9.23,1.22Z"/>
      <path class="cls-1" d="M192.92,64.31v-13.65h-1.09V17.06h9.23v47.25h-8.14ZM177.3,65.58c-3.27,0-6.01-.52-8.23-1.57-2.21-1.05-4.02-2.43-5.4-4.13-1.39-1.7-2.45-3.57-3.17-5.58-.73-2.01-1.23-3.98-1.49-5.91-.26-1.92-.39-3.62-.39-5.07v-26.25h9.27v23.23c0,1.84.15,3.72.46,5.66.3,1.94.89,3.74,1.75,5.4.86,1.66,2.07,3.01,3.63,4.03,1.56,1.02,3.6,1.53,6.11,1.53,1.64,0,3.18-.27,4.64-.81,1.46-.54,2.74-1.41,3.83-2.6,1.09-1.2,1.95-2.77,2.58-4.73.62-1.95.94-4.33.94-7.13l5.69,2.15c0,4.29-.8,8.07-2.41,11.35-1.6,3.28-3.91,5.84-6.91,7.68-3,1.84-6.63,2.75-10.89,2.75Z"/>
      <path class="cls-1" d="M209.29,24.41v-7.35h28.92v7.35h-28.92ZM217.12,64.31V15.39c0-1.19.04-2.47.12-3.82.09-1.36.35-2.7.77-4.03.42-1.32,1.12-2.54,2.12-3.65,1.2-1.31,2.51-2.24,3.94-2.8,1.43-.56,2.85-.88,4.27-.96,1.41-.09,2.72-.13,3.91-.13h5.96v7.52h-5.51c-2.16,0-3.77.54-4.84,1.6-1.06,1.07-1.6,2.58-1.6,4.53v50.66h-9.14Z"/>
      <path class="cls-1" d="M244.68,64.31V17.06h8.14v11.46l-1.14-1.48c.59-1.52,1.34-2.91,2.28-4.18.93-1.27,2.01-2.31,3.23-3.13,1.2-.88,2.53-1.55,4.01-2.03,1.47-.48,2.98-.78,4.53-.88,1.55-.1,3.04-.02,4.46.24v8.57c-1.55-.4-3.26-.52-5.14-.34-1.88.18-3.61.77-5.18,1.79-1.48.96-2.66,2.12-3.52,3.49-.86,1.38-1.48,2.9-1.86,4.58-.38,1.68-.57,3.45-.57,5.32v23.84h-9.23Z"/>
      <rect class="cls-1" x="278.85" y="17.06" width="9.15" height="47.25"/>
      <rect class="cls-2" x="278.85" y=".43" width="9.15" height="8.89"/>
      <polygon class="cls-1" points="295.34 64.31 313.02 40.42 295.73 17.06 306.58 17.06 318.35 33.29 329.99 17.06 340.84 17.06 323.55 40.42 341.28 64.31 330.38 64.31 318.35 47.55 306.23 64.31 295.34 64.31"/>
    </g>
  </g>
</svg>